<svg width="218" height="133" viewBox="0 0 218 133" fill="none" xmlns="http://www.w3.org/2000/svg">
<g clip-path="url(#clip0_25_1052)">
<path d="M201.33 57.9837L17.3441 57.9837C13.2228 57.9837 9.98462 54.7458 9.98462 50.6248L9.98462 6.47123C9.98462 2.35023 13.2228 -0.887695 17.3441 -0.887695L201.33 -0.887697C205.451 -0.887697 208.69 2.35023 208.69 6.47123L208.69 50.6248C208.69 54.5986 205.451 57.9837 201.33 57.9837Z" fill="black"/>
<path d="M201.33 0.289732C204.715 0.289732 207.511 3.08612 207.511 6.47123L207.511 50.6248C207.511 54.0099 204.715 56.8063 201.33 56.8063L17.3435 56.8063C13.9581 56.8063 11.1615 54.0099 11.1615 50.6248L11.1615 6.47123C11.1615 3.08613 13.9581 0.289733 17.3435 0.289733L201.33 0.289732ZM201.33 -0.887697L17.3435 -0.887695C13.2222 -0.887695 9.98401 2.35023 9.98401 6.47123L9.98401 50.6248C9.98401 54.7458 13.2222 57.9837 17.3435 57.9837L201.33 57.9837C205.451 57.9837 208.689 54.7458 208.689 50.6248L208.689 6.47123C208.689 2.49741 205.451 -0.887697 201.33 -0.887697Z" fill="#A6A6A6"/>
<path d="M110.22 31.1962C106.687 31.1962 103.891 33.8454 103.891 37.5249C103.891 41.0572 106.687 43.8536 110.22 43.8536C113.752 43.8536 116.549 41.2043 116.549 37.5249C116.549 33.6982 113.752 31.1962 110.22 31.1962ZM110.22 41.2043C108.306 41.2043 106.687 39.5854 106.687 37.3777C106.687 35.17 108.306 33.5511 110.22 33.5511C112.133 33.5511 113.752 35.0228 113.752 37.3777C113.752 39.5854 112.133 41.2043 110.22 41.2043ZM96.5312 31.1962C92.9987 31.1962 90.2021 33.8454 90.2021 37.5249C90.2021 41.0572 92.9987 43.8536 96.5312 43.8536C100.064 43.8536 102.86 41.2043 102.86 37.5249C102.86 33.6982 100.064 31.1962 96.5312 31.1962ZM96.5312 41.2043C94.6177 41.2043 92.9987 39.5854 92.9987 37.3777C92.9987 35.17 94.6177 33.5511 96.5312 33.5511C98.4446 33.5511 100.064 35.0228 100.064 37.3777C100.064 39.5854 98.4446 41.2043 96.5312 41.2043ZM80.1932 33.1095L80.1932 35.7587L86.5223 35.7587C86.3752 37.2305 85.7864 38.408 85.0505 39.1439C84.1673 40.0269 82.6954 41.0572 80.1932 41.0572C76.2191 41.0572 73.2754 37.9664 73.2754 33.9926C73.2754 30.0188 76.3663 26.928 80.1932 26.928C82.2539 26.928 83.8729 27.8111 85.0505 28.8413L86.9639 26.928C85.3448 25.4562 83.2842 24.2788 80.3404 24.2788C75.0416 24.2788 70.4788 28.6942 70.4788 33.9926C70.4788 39.291 75.0416 43.7064 80.3404 43.7064C83.2842 43.7064 85.3448 42.8233 87.1111 40.91C88.8774 39.1439 89.4661 36.6418 89.4661 34.7285C89.4661 34.1398 89.4661 33.5511 89.3189 33.1095L80.1932 33.1095ZM147.017 35.17C146.428 33.6982 144.956 31.1962 141.718 31.1962C138.48 31.1962 135.831 33.6982 135.831 37.5249C135.831 41.0572 138.48 43.8536 142.013 43.8536C144.809 43.8536 146.575 42.0874 147.164 41.0572L145.104 39.5854C144.368 40.6156 143.484 41.3515 142.013 41.3515C140.541 41.3515 139.658 40.7628 138.922 39.4382L147.311 35.9059L147.017 35.17ZM138.48 37.2305C138.48 34.8757 140.393 33.5511 141.718 33.5511C142.748 33.5511 143.779 34.1398 144.073 34.8757L138.48 37.2305ZM131.562 43.2648L134.359 43.2648L134.359 24.8675L131.562 24.8675L131.562 43.2648ZM127.146 32.5208C126.411 31.7849 125.233 31.049 123.761 31.049C120.67 31.049 117.726 33.8454 117.726 37.3777C117.726 40.91 120.523 43.5592 123.761 43.5592C125.233 43.5592 126.411 42.8233 126.999 42.0874L127.146 42.0874L127.146 42.9705C127.146 45.3254 125.822 46.65 123.761 46.65C122.142 46.65 120.965 45.4725 120.67 44.4423L118.315 45.4725C119.051 47.0915 120.817 49.152 123.908 49.152C127.146 49.152 129.796 47.2387 129.796 42.6761L129.796 31.4906L127.146 31.4906L127.146 32.5208ZM123.908 41.2043C121.995 41.2043 120.376 39.5854 120.376 37.3777C120.376 35.17 121.995 33.5511 123.908 33.5511C125.822 33.5511 127.294 35.17 127.294 37.3777C127.294 39.5854 125.822 41.2043 123.908 41.2043ZM159.822 24.8675L153.199 24.8675L153.199 43.2648L155.995 43.2648L155.995 36.3475L159.822 36.3475C162.913 36.3475 165.857 34.1398 165.857 30.6075C165.857 27.0752 162.913 24.8675 159.822 24.8675ZM159.97 33.6982L155.995 33.6982L155.995 27.3696L159.97 27.3696C162.03 27.3696 163.208 29.1357 163.208 30.4603C163.061 32.0793 161.883 33.6982 159.97 33.6982ZM176.896 31.049C174.836 31.049 172.775 31.9321 172.039 33.8454L174.541 34.8757C175.13 33.8454 176.013 33.5511 177.043 33.5511C178.515 33.5511 179.84 34.4341 179.987 35.9059L179.987 36.0531C179.546 35.7587 178.368 35.3172 177.191 35.3172C174.541 35.3172 171.892 36.789 171.892 39.4382C171.892 41.9402 174.1 43.5592 176.455 43.5592C178.368 43.5592 179.251 42.6761 179.987 41.7931L180.134 41.7931L180.134 43.2648L182.784 43.2648L182.784 36.2003C182.489 32.9623 179.987 31.049 176.896 31.049ZM176.602 41.2043C175.719 41.2043 174.394 40.7628 174.394 39.5854C174.394 38.1136 176.013 37.6721 177.338 37.6721C178.515 37.6721 179.104 37.9664 179.84 38.2608C179.546 40.0269 178.074 41.2043 176.602 41.2043ZM192.057 31.4906L188.966 39.4382L188.819 39.4382L185.58 31.4906L182.637 31.4906L187.494 42.6761L184.697 48.8576L187.494 48.8576L195.001 31.4906L192.057 31.4906ZM167.329 43.2648L170.126 43.2648L170.126 24.8675L167.329 24.8675L167.329 43.2648Z" fill="white"/>
<path d="M25.2914 10.1499C24.8498 10.5914 24.5554 11.3273 24.5554 12.2104L24.5554 44.7369C24.5554 45.62 24.8498 46.3558 25.2914 46.7974L25.4386 46.9446L43.69 28.6944L43.69 28.5472L43.69 28.4001L25.2914 10.1499Z" fill="url(#paint0_linear_25_1052)"/>
<path d="M49.7247 34.8764L43.69 28.8421L43.69 28.5477L43.69 28.4005L49.7247 22.3662L49.8719 22.5134L57.0842 26.6344C59.1448 27.8118 59.1448 29.7251 57.0842 30.9026L49.7247 34.8764Z" fill="url(#paint1_linear_25_1052)"/>
<path d="M49.872 34.7289L43.6901 28.5474L25.2914 46.9447C26.0274 47.6806 27.0577 47.6806 28.3824 47.0919L49.872 34.7289Z" fill="url(#paint2_linear_25_1052)"/>
<path d="M49.8719 22.3661L28.3823 10.1503C27.0576 9.41442 26.0273 9.5616 25.2913 10.2975L43.6899 28.5476L49.8719 22.3661Z" fill="url(#paint3_linear_25_1052)"/>
<path opacity="0.2" d="M49.7249 34.5811L28.3825 46.6497C27.205 47.3856 26.1746 47.2384 25.4387 46.6497L25.2915 46.7969L25.4387 46.9441C26.1746 47.5328 27.205 47.68 28.3825 46.9441L49.7249 34.5811Z" fill="black"/>
<path opacity="0.12" d="M25.2916 46.6508C24.8501 46.2093 24.7029 45.4734 24.7029 44.5903L24.7029 44.7375C24.7029 45.6206 24.9973 46.3565 25.4388 46.798L25.4388 46.6508L25.2916 46.6508Z" fill="black"/>
<path opacity="0.12" d="M57.0844 30.4607L49.725 34.5817L49.8722 34.7289L57.0844 30.6079C58.1147 30.0191 58.5563 29.2833 58.5563 28.5474C58.5563 29.2833 57.9676 29.872 57.0844 30.4607Z" fill="black"/>
<path opacity="0.25" d="M28.3825 10.2975L57.0844 26.6344C57.9675 27.2231 58.5563 27.8118 58.5563 28.5477C58.5563 27.8118 58.1147 27.0759 57.0844 26.4872L28.3825 10.1504C26.3219 8.97292 24.7028 10.0032 24.7028 12.358L24.7028 12.5052C24.7028 10.1504 26.3219 9.1201 28.3825 10.2975Z" fill="white"/>
<path d="M71.9503 21.0477L70.92 21.0477L70.92 18.1042L71.8031 18.1042C72.5391 17.5155 72.9806 16.338 72.9806 14.7191L72.9806 10.3037L78.8682 10.3037L78.8682 18.1042L79.8985 18.1042L79.8985 21.0477L78.8682 21.0477L78.8682 19.1344L72.0975 19.1344L72.0975 21.0477L71.9503 21.0477ZM74.0109 14.7191C74.0109 16.0437 73.7166 17.2211 73.1278 18.1042L77.5435 18.1042L77.5435 11.4811L73.8638 11.4811L73.8638 14.7191L74.0109 14.7191Z" fill="white" stroke="white" stroke-width="0.554246" stroke-miterlimit="10"/>
<path d="M88.5826 17.9567C87.6995 18.8398 86.6692 19.2813 85.3445 19.2813C84.0198 19.2813 82.9895 18.8398 82.1063 17.9567C81.2232 17.0736 80.7816 16.0434 80.7816 14.7188C80.7816 13.3942 81.2232 12.3639 82.1063 11.4809C82.9895 10.5978 84.0198 10.1562 85.3445 10.1562C86.6692 10.1562 87.6995 10.5978 88.5826 11.4809C89.4658 12.3639 89.9073 13.3942 89.9073 14.7188C89.9073 16.0434 89.4658 17.0736 88.5826 17.9567ZM82.9894 17.2208C83.5782 17.8095 84.4613 18.2511 85.3445 18.2511C86.2276 18.2511 87.1107 17.9567 87.6995 17.2208C88.2883 16.6321 88.7298 15.749 88.7298 14.7188C88.7298 13.6885 88.4354 12.8055 87.6995 12.2167C87.1107 11.628 86.2276 11.1865 85.3445 11.1865C84.4613 11.1865 83.5782 11.4809 82.9894 12.2167C82.4007 12.8055 81.9591 13.6885 81.9591 14.7188C81.9591 15.749 82.2535 16.6321 82.9894 17.2208Z" fill="white" stroke="white" stroke-width="0.554246" stroke-miterlimit="10"/>
<path d="M95.6478 19.2813C94.3231 19.2813 93.2927 18.8398 92.4096 17.9567C91.5265 17.0736 91.0849 16.0434 91.0849 14.7188C91.0849 13.3942 91.5265 12.3639 92.4096 11.4809C93.2927 10.5978 94.3231 10.1562 95.6478 10.1562C96.9724 10.1562 98.0028 10.5978 98.8859 11.628L98.15 12.3639C97.5612 11.628 96.6781 11.1865 95.6478 11.1865C94.6174 11.1865 93.8815 11.4809 93.1455 12.2167C92.4096 12.8055 92.1152 13.6885 92.1152 14.7188C92.1152 15.749 92.4096 16.6321 93.1455 17.2208C93.7343 17.8095 94.6174 18.2511 95.6478 18.2511C96.6781 18.2511 97.5612 17.8095 98.2972 16.9265L99.0331 17.6624C98.5915 18.1039 98.15 18.5454 97.5612 18.8398C96.9725 19.1341 96.3837 19.2813 95.6478 19.2813Z" fill="white" stroke="white" stroke-width="0.554246" stroke-miterlimit="10"/>
<path d="M103.743 19.1344L102.566 19.1344L102.566 11.334L100.064 11.334L100.064 10.3037L106.098 10.3037L106.098 11.334L103.596 11.334L103.596 19.1344L103.743 19.1344Z" fill="white" stroke="white" stroke-width="0.554246" stroke-miterlimit="10"/>
<path d="M113.717 10.4512L110.514 17.8101C110.072 18.8404 109.336 19.4291 108.453 19.4291C108.159 19.4291 107.864 19.4291 107.57 19.2819L107.864 18.2516C108.012 18.3988 108.306 18.3988 108.453 18.3988C108.747 18.3988 108.895 18.3988 109.042 18.2516C109.189 18.1045 109.336 17.9573 109.483 17.6629L109.778 16.927L106.834 10.4512L108.159 10.4512L110.367 15.4552L112.427 10.4512L113.717 10.4512Z" fill="white" stroke="white" stroke-width="0.554246" stroke-miterlimit="10"/>
<path d="M115.224 19.1344L115.224 10.3037L121.553 10.3037L121.553 19.1344L120.376 19.1344L120.376 11.334L116.254 11.334L116.254 19.1344L115.224 19.1344Z" fill="white" stroke="white" stroke-width="0.554246" stroke-miterlimit="10"/>
<path d="M123.614 19.1344L123.614 10.3037L124.791 10.3037L124.791 14.1304L129.207 14.1304L129.207 10.3037L130.384 10.3037L130.384 19.1344L129.207 19.1344L129.207 15.1606L124.791 15.1606L124.791 19.1344L123.614 19.1344Z" fill="white" stroke="white" stroke-width="0.554246" stroke-miterlimit="10"/>
<path d="M139.657 17.9567C138.774 18.8398 137.744 19.2813 136.419 19.2813C135.094 19.2813 134.064 18.8398 133.181 17.9567C132.298 17.0736 131.856 16.0434 131.856 14.7188C131.856 13.3942 132.298 12.3639 133.181 11.4809C134.064 10.5978 135.094 10.1562 136.419 10.1562C137.744 10.1562 138.774 10.5978 139.657 11.4809C140.54 12.3639 140.982 13.3942 140.982 14.7188C140.835 16.0434 140.393 17.0736 139.657 17.9567ZM133.917 17.2208C134.505 17.8095 135.389 18.2511 136.272 18.2511C137.155 18.2511 138.038 17.9567 138.627 17.2208C139.215 16.6321 139.657 15.749 139.657 14.7188C139.657 13.6885 139.363 12.8055 138.627 12.2167C138.038 11.628 137.155 11.1865 136.272 11.1865C135.389 11.1865 134.505 11.4809 133.917 12.2167C133.328 12.8055 132.886 13.6885 132.886 14.7188C132.886 15.749 133.328 16.6321 133.917 17.2208Z" fill="white" stroke="white" stroke-width="0.554246" stroke-miterlimit="10"/>
<path d="M145.545 19.1344L145.545 10.3037L148.783 10.3037C149.519 10.3037 150.108 10.5981 150.549 11.0396C150.991 11.4811 151.285 12.0699 151.285 12.8057C151.285 13.2473 151.138 13.5416 150.991 13.9832C150.844 14.2775 150.549 14.5719 150.108 14.7191C150.549 14.8662 150.844 15.1606 151.138 15.455C151.432 15.7493 151.579 16.1909 151.579 16.7796C151.579 17.5155 151.285 18.1042 150.844 18.5457C150.255 18.9872 149.666 19.2816 148.93 19.2816L145.545 19.2816L145.545 19.1344ZM146.722 14.1304L148.783 14.1304C149.224 14.1304 149.519 13.9832 149.813 13.6888C150.108 13.3945 150.255 13.1001 150.255 12.8057C150.255 12.5114 150.108 12.217 149.813 11.9227C149.519 11.6283 149.224 11.4811 148.783 11.4811L146.722 11.4811L146.722 14.1304ZM146.722 18.1042L149.077 18.1042C149.519 18.1042 149.813 17.957 150.108 17.6626C150.402 17.3683 150.549 17.0739 150.549 16.6324C150.549 16.338 150.402 15.8965 150.108 15.6021C149.813 15.3078 149.519 15.1606 149.077 15.1606L146.869 15.1606L146.869 18.1042L146.722 18.1042Z" fill="white" stroke="white" stroke-width="0.554246" stroke-miterlimit="10"/>
</g>
<path d="M192.88 65.9153L25.9817 65.9153C25.3733 65.9153 24.7723 65.9153 24.1655 65.9186C23.6576 65.9219 23.1538 65.9315 22.641 65.9396C21.527 65.9527 20.4156 66.0507 19.3165 66.2328C18.2189 66.4188 17.1557 66.7694 16.1628 67.2729C15.1712 67.7806 14.2651 68.4404 13.4775 69.2282C12.6857 70.0138 12.0256 70.9218 11.5228 71.9174C11.0185 72.911 10.6689 73.9757 10.4859 75.0748C10.3012 76.1725 10.2018 77.2829 10.1886 78.3959C10.1732 78.9046 10.1716 79.4149 10.1635 79.9236L10.1635 118.268C10.1716 118.783 10.1732 119.282 10.1886 119.797C10.2018 120.91 10.3012 122.02 10.4859 123.118C10.6684 124.218 11.018 125.283 11.5228 126.277C12.0254 127.269 12.6855 128.174 13.4775 128.955C14.2621 129.746 15.1688 130.407 16.1628 130.91C17.1557 131.415 18.2188 131.768 19.3165 131.957C20.4158 132.137 21.527 132.235 22.641 132.25C23.1538 132.261 23.6576 132.268 24.1655 132.268C24.7723 132.271 25.3734 132.271 25.9817 132.271L192.88 132.271C193.476 132.271 194.082 132.271 194.678 132.268C195.184 132.268 195.702 132.261 196.207 132.25C197.319 132.236 198.428 132.138 199.526 131.957C200.627 131.767 201.694 131.414 202.691 130.91C203.684 130.406 204.59 129.746 205.374 128.955C206.164 128.171 206.826 127.267 207.335 126.277C207.836 125.282 208.182 124.217 208.362 123.118C208.547 122.02 208.65 120.91 208.67 119.797C208.676 119.282 208.676 118.783 208.676 118.268C208.689 117.665 208.689 117.066 208.689 116.453L208.689 81.7347C208.689 81.1272 208.689 80.5246 208.676 79.9236C208.676 79.4149 208.676 78.9046 208.67 78.3959C208.65 77.2827 208.547 76.1726 208.362 75.0748C208.181 73.9763 207.835 72.9117 207.335 71.9173C206.31 69.9218 204.687 68.2975 202.691 67.2728C201.694 66.7705 200.627 66.42 199.526 66.2326C198.429 66.0498 197.319 65.9518 196.207 65.9394C195.702 65.9313 195.184 65.9216 194.678 65.9184C194.082 65.915 193.476 65.915 192.88 65.915V65.9153Z" fill="#A6A6A6"/>
<path d="M24.1736 130.82C23.6681 130.82 23.1748 130.814 22.6733 130.802C21.6344 130.789 20.5979 130.698 19.5724 130.532C18.6161 130.367 17.6897 130.061 16.8238 129.623C15.9658 129.189 15.1833 128.619 14.5062 127.936C13.8192 127.262 13.2473 126.479 12.8131 125.62C12.3741 124.755 12.0703 123.828 11.9123 122.871C11.7416 121.842 11.6493 120.802 11.636 119.76C11.6255 119.41 11.6118 118.245 11.6118 118.245L11.6118 79.924C11.6118 79.924 11.6264 78.777 11.6361 78.44C11.6488 77.3993 11.7406 76.3612 11.9107 75.3344C12.0691 74.3748 12.3731 73.445 12.8124 72.5772C13.245 71.7184 13.8137 70.9352 14.4965 70.2581C15.1785 69.5746 15.9636 69.0022 16.823 68.5619C17.6869 68.1255 18.6116 67.8213 19.5659 67.6596C20.5948 67.4913 21.6349 67.4004 22.6774 67.3874L24.1744 67.3672L194.67 67.3672L196.185 67.3883C197.218 67.4005 198.248 67.4907 199.268 67.658C200.232 67.8217 201.166 68.128 202.04 68.5668C203.762 69.4541 205.163 70.8578 206.046 72.5812C206.479 73.443 206.778 74.3653 206.934 75.3166C207.106 76.3518 207.203 77.3981 207.223 78.4473C207.227 78.9171 207.227 79.4217 207.227 79.924C207.241 80.546 207.241 81.1382 207.241 81.7351L207.241 116.454C207.241 117.056 207.241 117.644 207.227 118.237C207.227 118.777 207.227 119.271 207.221 119.78C207.202 120.81 207.107 121.838 206.937 122.854C206.783 123.818 206.48 124.753 206.042 125.625C205.604 126.475 205.036 127.251 204.357 127.923C203.679 128.61 202.895 129.183 202.035 129.62C201.164 130.061 200.231 130.368 199.268 130.532C198.242 130.699 197.206 130.79 196.167 130.802C195.681 130.814 195.172 130.82 194.678 130.82L192.88 130.823L24.1736 130.82Z" fill="black"/>
<path d="M51.2554 99.5932C51.2733 98.2085 51.6411 96.8509 52.3247 95.6466C53.0082 94.4424 53.9853 93.4305 55.165 92.7053C54.4156 91.6351 53.4269 90.7543 52.2775 90.1329C51.1281 89.5116 49.8496 89.1668 48.5436 89.1259C45.7577 88.8335 43.0569 90.7929 41.6373 90.7929C40.1901 90.7929 38.0044 89.155 35.6507 89.2034C34.1282 89.2526 32.6445 89.6953 31.344 90.4883C30.0435 91.2814 28.9707 92.3977 28.23 93.7287C25.0214 99.2833 27.4147 107.447 30.4883 111.937C32.026 114.135 33.8232 116.591 36.1748 116.504C38.4759 116.409 39.3354 115.037 42.1131 115.037C44.865 115.037 45.6713 116.504 48.0706 116.449C50.5399 116.409 52.0956 114.241 53.5794 112.021C54.6843 110.454 55.5345 108.723 56.0985 106.891C54.664 106.284 53.4397 105.269 52.5785 103.971C51.7173 102.673 51.2571 101.151 51.2554 99.5932Z" fill="white"/>
<path d="M46.7236 86.1724C48.07 84.5563 48.7333 82.4791 48.5727 80.3818C46.5157 80.5979 44.6157 81.5809 43.2512 83.135C42.584 83.8942 42.0731 84.7774 41.7475 85.7342C41.4219 86.691 41.2881 87.7026 41.3538 88.7112C42.3826 88.7218 43.4004 88.4988 44.3306 88.059C45.2607 87.6193 46.0789 86.9742 46.7236 86.1724Z" fill="white"/>
<path d="M80.3439 110.937L72.491 110.937L70.6052 116.505L67.2791 116.505L74.7171 95.9048L78.1729 95.9048L85.6109 116.505L82.2281 116.505L80.3439 110.937ZM73.3043 108.368L79.529 108.368L76.4605 99.3312L76.3746 99.3312L73.3043 108.368Z" fill="white"/>
<path d="M101.675 108.996C101.675 113.663 99.1764 116.662 95.4064 116.662C94.4513 116.712 93.5015 116.492 92.6657 116.027C91.8299 115.562 91.1419 114.872 90.6804 114.034L90.6091 114.034L90.6091 121.473L87.5259 121.473L87.5259 101.486L90.5103 101.486L90.5103 103.984L90.567 103.984C91.0497 103.15 91.7494 102.463 92.5915 101.995C93.4337 101.528 94.3869 101.297 95.3497 101.328C99.1618 101.328 101.675 104.342 101.675 108.996ZM98.5057 108.996C98.5057 105.955 96.9341 103.956 94.5363 103.956C92.1806 103.956 90.5961 105.997 90.5961 108.996C90.5961 112.022 92.1806 114.049 94.5363 114.049C96.9341 114.049 98.5057 112.064 98.5057 108.996Z" fill="white"/>
<path d="M118.206 108.996C118.206 113.663 115.708 116.662 111.938 116.662C110.983 116.712 110.033 116.492 109.198 116.027C108.362 115.562 107.674 114.872 107.212 114.034L107.141 114.034L107.141 121.473L104.058 121.473L104.058 101.486L107.042 101.486L107.042 103.984L107.099 103.984C107.581 103.15 108.281 102.463 109.123 101.995C109.965 101.528 110.919 101.297 111.881 101.328C115.694 101.328 118.206 104.342 118.206 108.996ZM115.037 108.996C115.037 105.955 113.466 103.956 111.068 103.956C108.712 103.956 107.128 105.997 107.128 108.996C107.128 112.022 108.712 114.049 111.068 114.049C113.466 114.049 115.037 112.064 115.037 108.996L115.037 108.996Z" fill="white"/>
<path d="M129.133 110.766C129.361 112.809 131.346 114.15 134.058 114.15C136.657 114.15 138.526 112.809 138.526 110.967C138.526 109.368 137.399 108.41 134.729 107.754L132.059 107.111C128.276 106.197 126.519 104.428 126.519 101.558C126.519 98.0034 129.617 95.562 134.016 95.562C138.369 95.562 141.353 98.0034 141.454 101.558L138.341 101.558C138.155 99.5019 136.456 98.261 133.972 98.261C131.488 98.261 129.789 99.5165 129.789 101.344C129.789 102.8 130.874 103.657 133.53 104.313L135.799 104.871C140.026 105.87 141.783 107.568 141.783 110.581C141.783 114.435 138.712 116.849 133.829 116.849C129.261 116.849 126.176 114.492 125.977 110.766L129.133 110.766Z" fill="white"/>
<path d="M148.437 97.9316L148.437 101.486L151.293 101.486L151.293 103.927L148.437 103.927L148.437 112.207C148.437 113.494 149.008 114.093 150.264 114.093C150.603 114.087 150.942 114.063 151.278 114.022L151.278 116.448C150.714 116.554 150.14 116.602 149.566 116.591C146.525 116.591 145.339 115.449 145.339 112.536L145.339 103.927L143.155 103.927L143.155 101.486L145.339 101.486L145.339 97.9316L148.437 97.9316Z" fill="white"/>
<path d="M152.947 108.996C152.947 104.271 155.731 101.301 160.071 101.301C164.426 101.301 167.196 104.271 167.196 108.996C167.196 113.735 164.44 116.691 160.071 116.691C155.703 116.691 152.947 113.735 152.947 108.996ZM164.055 108.996C164.055 105.755 162.569 103.841 160.071 103.841C157.573 103.841 156.089 105.769 156.089 108.996C156.089 112.251 157.573 114.15 160.071 114.15C162.569 114.15 164.055 112.251 164.055 108.996L164.055 108.996Z" fill="white"/>
<path d="M169.738 101.487L172.679 101.487L172.679 104.044L172.75 104.044C172.949 103.245 173.417 102.54 174.075 102.046C174.733 101.551 175.541 101.299 176.363 101.33C176.718 101.329 177.073 101.368 177.419 101.445L177.419 104.329C176.971 104.192 176.503 104.129 176.034 104.143C175.586 104.124 175.14 104.203 174.725 104.374C174.311 104.545 173.938 104.803 173.633 105.131C173.328 105.46 173.097 105.85 172.957 106.276C172.817 106.702 172.771 107.153 172.821 107.598L172.821 116.507L169.738 116.507L169.738 101.487Z" fill="white"/>
<path d="M191.634 112.094C191.22 114.82 188.564 116.691 185.167 116.691C180.797 116.691 178.085 113.764 178.085 109.068C178.085 104.357 180.812 101.301 185.037 101.301C189.193 101.301 191.806 104.156 191.806 108.71L191.806 109.766L181.197 109.766L181.197 109.952C181.148 110.505 181.218 111.062 181.4 111.586C181.583 112.11 181.875 112.589 182.258 112.991C182.64 113.393 183.103 113.71 183.617 113.919C184.131 114.129 184.683 114.227 185.238 114.206C185.967 114.275 186.698 114.106 187.323 113.725C187.948 113.345 188.433 112.772 188.707 112.094L191.634 112.094ZM181.212 107.611L188.721 107.611C188.749 107.114 188.674 106.617 188.5 106.15C188.326 105.684 188.058 105.258 187.712 104.9C187.366 104.542 186.95 104.26 186.49 104.07C186.029 103.881 185.535 103.789 185.037 103.799C184.535 103.796 184.037 103.893 183.573 104.083C183.108 104.273 182.686 104.554 182.33 104.908C181.975 105.263 181.693 105.684 181.501 106.148C181.309 106.612 181.211 107.109 181.212 107.611V107.611Z" fill="white"/>
<path d="M71.1131 84.5843L72.4367 84.5843C72.6646 84.6126 72.8958 84.5935 73.1159 84.5281C73.336 84.4626 73.5402 84.3523 73.7155 84.2041C73.8909 84.0558 74.0336 83.8729 74.1348 83.6667C74.2359 83.4606 74.2932 83.2357 74.3031 83.0064C74.3031 82.0935 73.6162 81.5038 72.4513 81.5038C72.2179 81.4712 71.9802 81.4857 71.7525 81.5464C71.5247 81.6071 71.3114 81.7129 71.1252 81.8574C70.939 82.0019 70.7837 82.1823 70.6683 82.3878C70.553 82.5934 70.48 82.8199 70.4537 83.0542L69.0004 83.0542C69.0254 82.629 69.1377 82.2135 69.3302 81.8336C69.5228 81.4537 69.7915 81.1175 70.1196 80.8459C70.4477 80.5744 70.8282 80.3732 71.2375 80.2551C71.6467 80.1369 72.0759 80.1043 72.4982 80.1592C74.4473 80.1592 75.8196 81.2502 75.8196 82.8209C75.8242 83.347 75.6481 83.8588 75.3208 84.2709C74.9935 84.6829 74.5348 84.9702 74.0212 85.0848L74.0212 85.2015C74.6301 85.2285 75.2035 85.4954 75.6161 85.944C76.0287 86.3925 76.2469 86.9861 76.223 87.5951C76.1779 88.0328 76.0459 88.4572 75.8347 88.8433C75.6235 89.2294 75.3374 89.5694 74.993 89.8435C74.6487 90.1176 74.2531 90.3202 73.8294 90.4394C73.4058 90.5586 72.9626 90.5921 72.5258 90.5378C72.0882 90.5975 71.643 90.5684 71.2168 90.4524C70.7906 90.3363 70.3921 90.1356 70.0451 89.8623C69.6981 89.589 69.4097 89.2486 69.1971 88.8614C68.9845 88.4743 68.8521 88.0483 68.8076 87.6088L70.2836 87.6088C70.3727 88.5557 71.2427 89.1665 72.5258 89.1665C73.809 89.1665 74.6466 88.4805 74.6466 87.5133C74.6466 86.5324 73.8576 85.9281 72.4789 85.9281L71.1131 85.9281L71.1131 84.5843Z" fill="white"/>
<path d="M77.8999 88.1847C77.8999 86.8401 78.9028 86.0649 80.6784 85.9547L82.702 85.8381L82.702 85.1933C82.702 84.4044 82.1819 83.9589 81.1726 83.9589C80.3496 83.9589 79.7809 84.261 79.6156 84.7891L78.1883 84.7891C78.339 83.5061 79.5476 82.6831 81.2423 82.6831C83.1151 82.6831 84.1715 83.6154 84.1715 85.1933L84.1715 90.2972L82.7506 90.2972L82.7506 89.2474L82.634 89.2474C82.3972 89.624 82.0647 89.931 81.6705 90.137C81.2763 90.3431 80.8344 90.4408 80.3901 90.4203C80.0765 90.4529 79.7595 90.4194 79.4596 90.322C79.1597 90.2247 78.8836 90.0655 78.6489 89.8549C78.4143 89.6443 78.2265 89.3868 78.0974 89.0992C77.9684 88.8115 77.9011 88.5 77.8999 88.1847ZM82.702 87.5464L82.702 86.9219L80.8777 87.0385C79.8489 87.1074 79.3823 87.4573 79.3823 88.1158C79.3823 88.7881 79.9655 89.1794 80.7675 89.1794C81.0025 89.2031 81.2399 89.1794 81.4656 89.1096C81.6912 89.0398 81.9005 88.9253 82.081 88.7729C82.2615 88.6206 82.4095 88.4335 82.5161 88.2228C82.6228 88.012 82.686 87.782 82.702 87.5464Z" fill="white"/>
<path d="M88.0841 84.0681L88.0841 90.2971L86.6097 90.2971L86.6097 82.8271L91.5285 82.8271L91.5285 84.068L88.0841 84.0681Z" fill="white"/>
<path d="M100.464 86.5595C100.464 88.9328 99.2631 90.4208 97.3772 90.4208C96.9143 90.4524 96.4519 90.3511 96.0447 90.1289C95.6374 89.9066 95.3021 89.5725 95.0782 89.1661L94.9616 89.1661L94.9616 92.7812L93.4872 92.7812L93.4872 82.8278L94.9065 82.8278L94.9065 84.0623L95.0167 84.0623C95.2445 83.6417 95.5842 83.2922 95.9982 83.0525C96.4122 82.8128 96.8844 82.6921 97.3626 82.7039C99.263 82.7039 100.464 84.1854 100.464 86.5595ZM98.9471 86.5595C98.9471 84.9816 98.2002 84.0282 96.9511 84.0282C95.7102 84.0282 94.934 85.0019 94.934 86.566C94.934 88.1228 95.7101 89.0973 96.9446 89.0973C98.2002 89.0973 98.9471 88.1439 98.9471 86.5595Z" fill="white"/>
<path d="M102.427 92.9725L102.427 91.7032C102.587 91.7235 102.747 91.7327 102.908 91.7308C103.222 91.754 103.534 91.6605 103.783 91.4681C104.033 91.2757 104.202 90.998 104.259 90.6883L104.37 90.3246L101.666 82.8271L103.271 82.8271L105.144 88.7605L105.261 88.7605L107.127 82.8271L108.691 82.8271L105.906 90.6057C105.267 92.4233 104.561 93.0065 103.038 93.0065C102.915 93.0065 102.565 92.9928 102.427 92.9725Z" fill="white"/>
<path d="M109.839 88.1789L111.307 88.1789C111.451 88.8375 112.069 89.1809 112.932 89.1809C113.914 89.1809 114.517 88.7484 114.517 88.0761C114.517 87.356 113.976 87.0125 112.932 87.0125L111.814 87.0125L111.814 85.8672L112.913 85.8672C113.804 85.8672 114.257 85.5245 114.257 84.9C114.257 84.3517 113.818 83.9329 112.913 83.9329C112.088 83.9329 111.485 84.2828 111.39 84.8725L109.969 84.8725C110.075 84.1949 110.443 83.5861 110.994 83.1769C111.544 82.7678 112.233 82.591 112.913 82.6847C114.688 82.6847 115.704 83.4874 115.704 84.7494C115.712 85.1008 115.6 85.4444 115.385 85.7228C115.171 86.0012 114.867 86.1974 114.525 86.2787L114.525 86.3953C114.932 86.4479 115.306 86.648 115.575 86.9578C115.844 87.2677 115.991 87.6656 115.986 88.0761C115.986 89.4961 114.777 90.4357 112.932 90.4357C111.301 90.4356 109.975 89.688 109.839 88.1789Z" fill="white"/>
<path d="M118.109 90.2971L118.109 82.8271L119.571 82.8271L119.571 87.9651L119.687 87.9651L123.13 82.8272L124.591 82.8272L124.591 90.2971L123.13 90.2971L123.13 85.1317L123.02 85.1317L119.571 90.2971L118.109 90.2971Z" fill="white"/>
<path d="M132.642 84.07L130.289 84.07L130.289 90.2989L128.813 90.2989L128.813 84.07L126.461 84.07L126.461 82.8291L132.642 82.8291L132.642 84.07Z" fill="white"/>
<path d="M140.584 88.2804C140.383 88.9631 139.949 89.5535 139.357 89.9485C138.765 90.3435 138.053 90.518 137.345 90.4415C136.853 90.4545 136.364 90.3602 135.912 90.1653C135.46 89.9703 135.056 89.6793 134.727 89.3124C134.399 88.9456 134.154 88.5117 134.011 88.0409C133.867 87.57 133.827 87.0735 133.894 86.5859C133.829 86.0967 133.869 85.5991 134.013 85.1269C134.156 84.6546 134.399 84.2187 134.726 83.8487C135.053 83.4786 135.455 83.183 135.906 82.982C136.357 82.7809 136.845 82.679 137.339 82.6832C139.417 82.6832 140.673 84.1032 140.673 86.4489L140.673 86.9634L135.398 86.9634L135.398 87.046C135.375 87.3202 135.409 87.5962 135.499 87.8563C135.588 88.1165 135.731 88.355 135.919 88.5566C136.106 88.7581 136.334 88.9182 136.586 89.0266C136.839 89.135 137.112 89.1893 137.387 89.1859C137.74 89.2281 138.097 89.1645 138.413 89.0032C138.729 88.842 138.99 88.5904 139.163 88.2804L140.584 88.2804ZM135.398 85.8731L139.17 85.8731C139.188 85.6225 139.154 85.3708 139.07 85.1341C138.985 84.8974 138.852 84.6811 138.679 84.4988C138.506 84.3166 138.297 84.1726 138.065 84.076C137.833 83.9794 137.584 83.9324 137.332 83.938C137.077 83.9345 136.824 83.9822 136.588 84.0782C136.351 84.1742 136.137 84.3167 135.956 84.4971C135.776 84.6775 135.634 84.8922 135.538 85.1285C135.442 85.3648 135.394 85.618 135.398 85.8731L135.398 85.8731Z" fill="white"/>
<path d="M146.834 82.8271L150.203 82.8271C151.664 82.8271 152.521 83.5675 152.521 84.7266C152.523 85.0944 152.399 85.4518 152.169 85.739C151.94 86.0263 151.618 86.2259 151.259 86.3045L151.259 86.4211C151.695 86.4487 152.104 86.6427 152.402 86.9632C152.699 87.2837 152.862 87.7061 152.856 88.1432C152.856 89.4465 151.876 90.297 150.237 90.297L146.834 90.297L146.834 82.8271ZM148.296 83.9587L148.296 85.893L149.757 85.893C150.648 85.893 151.074 85.5504 151.074 84.9186C151.074 84.3362 150.703 83.9587 149.921 83.9587L148.296 83.9587ZM148.296 86.9768L148.296 89.1655L150.044 89.1655C150.916 89.1655 151.382 88.7807 151.382 88.0744C151.382 87.3268 150.854 86.9768 149.859 86.9768L148.296 86.9768Z" fill="white"/>
<defs>
<linearGradient id="paint0_linear_25_1052" x1="42.0705" y1="11.9303" x2="17.3703" y2="36.6321" gradientUnits="userSpaceOnUse">
<stop stop-color="#00A0FF"/>
<stop offset="0.00657445" stop-color="#00A1FF"/>
<stop offset="0.2601" stop-color="#00BEFF"/>
<stop offset="0.5122" stop-color="#00D2FF"/>
<stop offset="0.7604" stop-color="#00DFFF"/>
<stop offset="1" stop-color="#00E3FF"/>
</linearGradient>
<linearGradient id="paint1_linear_25_1052" x1="59.7842" y1="28.5498" x2="24.1691" y2="28.5498" gradientUnits="userSpaceOnUse">
<stop stop-color="#FFE000"/>
<stop offset="0.4087" stop-color="#FFBD00"/>
<stop offset="0.7754" stop-color="#FFA500"/>
<stop offset="1" stop-color="#FF9C00"/>
</linearGradient>
<linearGradient id="paint2_linear_25_1052" x1="46.5264" y1="31.9267" x2="13.031" y2="65.4244" gradientUnits="userSpaceOnUse">
<stop stop-color="#FF3A44"/>
<stop offset="1" stop-color="#C31162"/>
</linearGradient>
<linearGradient id="paint3_linear_25_1052" x1="20.7245" y1="-0.628748" x2="35.6817" y2="14.3293" gradientUnits="userSpaceOnUse">
<stop stop-color="#32A071"/>
<stop offset="0.0685" stop-color="#2DA771"/>
<stop offset="0.4762" stop-color="#15CF74"/>
<stop offset="0.8009" stop-color="#06E775"/>
<stop offset="1" stop-color="#00F076"/>
</linearGradient>
<clipPath id="clip0_25_1052">
<rect width="200.593" height="58.8714" fill="white" transform="translate(9.98395) scale(0.990587 1)"/>
</clipPath>
</defs>
</svg>
