<svg width="289" height="97" viewBox="0 0 289 97" fill="none" xmlns="http://www.w3.org/2000/svg">
<g clip-path="url(#clip0_25_1114)">
<path d="M271.338 33.8896C269.152 43.206 266.943 52.4979 264.529 62.7554C270.949 62.1497 274.524 58.3904 276.05 53.9549C280.552 40.8168 284.911 27.5561 287.918 14.0383C289.65 6.28983 284.276 2.14007 276.701 4.40262C264.075 8.18159 251.66 12.5921 239.151 16.7596C238.422 16.9934 237.428 17.2001 237.083 17.7286C235.95 19.4824 235.082 21.3844 234.094 23.2125C235.682 24.0046 237.382 25.645 238.86 25.4679C243.827 24.8702 248.754 23.6427 253.677 22.6573C256.272 22.1297 258.843 21.6019 262.631 22.6364C259.912 25.5825 257.288 28.6506 254.426 31.4257C196.148 88.2463 109.655 99.62 38.4004 59.6204C29.2862 54.5092 20.8138 48.2679 12.0203 42.6037C8.94489 40.6334 5.77079 38.8314 2.64615 36.9331C1.98637 37.5065 1.32685 38.0557 0.667059 38.6291C1.46509 40.8401 1.62698 43.6732 3.13508 45.142C8.35268 50.3064 13.7157 55.4482 19.5956 59.8214C79.2111 104.047 162.644 106.674 227.688 65.8763C240.092 58.102 251.07 48.037 262.642 38.9467C265.034 37.0859 267.14 34.859 269.365 32.8028C270.015 33.1488 270.665 33.4707 271.314 33.8167L271.338 33.8896Z" fill="white"/>
</g>
<defs>
<clipPath id="clip0_25_1114">
<rect width="92.8216" height="287.224" fill="white" transform="matrix(-0.0111879 0.999937 0.999937 0.0111879 1.11615 0.666016)"/>
</clipPath>
</defs>
</svg>
