<?xml version="1.0" encoding="utf-8"?>
<!-- Generator: Adobe Illustrator 28.0.0, SVG Export Plug-In . SVG Version: 6.00 Build 0)  -->
<svg version="1.1" id="Слой_1" xmlns="http://www.w3.org/2000/svg" xmlns:xlink="http://www.w3.org/1999/xlink" x="0px" y="0px"
	 viewBox="0 0 1219 900" style="enable-background:new 0 0 1219 900;" xml:space="preserve">
<style type="text/css">
	.st0{fill:url(#SVGID_1_);}
	.st1{fill:url(#SVGID_00000179618610549863737610000005390810382010769342_);}
</style>
<linearGradient id="SVGID_1_" gradientUnits="userSpaceOnUse" x1="1100.13" y1="228.3806" x2="-710.788" y2="228.3806" gradientTransform="matrix(1 0 0 -1 0 899.2756)">
	<stop  offset="0" style="stop-color:#19CB6A"/>
	<stop  offset="1" style="stop-color:#3FE1CE"/>
</linearGradient>
<path class="st0" d="M141.9-189.9L141.9-189.9c475.4,0,860.8,385.4,860.8,860.8v0c0,475.4-385.4,860.8-860.8,860.8h0
	c-475.4,0-860.8-385.4-860.8-860.8v0C-718.9,195.5-333.5-189.9,141.9-189.9z"/>
<linearGradient id="SVGID_00000050627873249018436240000011358965564136699302_" gradientUnits="userSpaceOnUse" x1="955.451" y1="381.7856" x2="-800.127" y2="381.7856" gradientTransform="matrix(1 0 0 -1 0 899.2756)">
	<stop  offset="0" style="stop-color:#19CB6A"/>
	<stop  offset="1" style="stop-color:#3FE1CE"/>
</linearGradient>
<path style="fill:url(#SVGID_00000050627873249018436240000011358965564136699302_);" d="M26.5-317L26.5-317
	C487.4-317,861,56.6,861,517.5l0,0C861,978.4,487.4,1352,26.5,1352l0,0C-434.4,1352-808,978.4-808,517.5l0,0
	C-808,56.6-434.4-317,26.5-317z"/>
</svg>
