<svg width="367" height="168" viewBox="0 0 367 168" fill="none" xmlns="http://www.w3.org/2000/svg">
<g filter="url(#filter0_d_25_1113)">
<path d="M245.549 78.1157C242.598 78.1157 240.197 80.5965 240.197 83.6447C240.197 86.7024 242.598 89.1736 245.549 89.1736C248.509 89.1736 250.901 86.7024 250.901 83.6447C250.901 80.5965 248.509 78.1157 245.549 78.1157Z" fill="white" fill-opacity="0.95" shape-rendering="crispEdges"/>
<path d="M208.62 78.1157C205.669 78.1157 203.268 80.5965 203.268 83.6447C203.268 86.7024 205.669 89.1736 208.62 89.1736C211.58 89.1736 213.972 86.7024 213.972 83.6447C213.972 80.5965 211.57 78.1157 208.62 78.1157Z" fill="white" fill-opacity="0.95" shape-rendering="crispEdges"/>
<path d="M171.69 78.1157C168.731 78.1157 166.338 80.5965 166.338 83.6447C166.338 86.7024 168.731 89.1736 171.69 89.1736C174.65 89.1736 177.043 86.7024 177.043 83.6447C177.043 80.5965 174.641 78.1157 171.69 78.1157Z" fill="white" fill-opacity="0.95" shape-rendering="crispEdges"/>
<path d="M304.458 85.4371C304.504 84.8345 304.523 84.2223 304.523 83.61C304.523 70.8011 294.563 60.383 282.319 60.383C274.626 60.383 267.844 64.4939 263.859 70.7234C259.873 64.4939 253.091 60.383 245.399 60.383C244.814 60.383 244.238 60.4024 243.652 60.451C241.543 57.7299 238.32 56.0097 234.706 56.0097C228.899 56.0097 224.096 60.5288 223.316 66.3793C219.377 62.6668 214.183 60.383 208.479 60.383C200.796 60.383 194.014 64.4939 190.029 70.7234C186.043 64.4939 179.261 60.383 171.578 60.383C167.592 60.383 163.848 61.5006 160.615 63.4346C158.878 59.0807 154.772 56 149.978 56H128.619C122.265 56.0097 117.099 61.4132 117.099 68.0605C117.099 74.4067 121.819 79.6255 127.783 80.0725V94.8153C127.783 101.463 132.949 106.866 139.303 106.866C145.658 106.866 150.823 101.463 150.823 94.8153V91.754C153.982 100.559 162.092 106.847 171.587 106.847C179.27 106.847 186.052 102.736 190.038 96.5063C194.023 102.736 200.805 106.847 208.488 106.847C216.172 106.847 222.954 102.736 226.939 96.5063C230.925 102.736 237.707 106.847 245.39 106.847C253.082 106.847 259.864 102.736 263.85 96.5063C267.835 102.736 274.617 106.847 282.309 106.847H297.183C303.538 106.847 308.703 101.443 308.703 94.7959C308.722 91.0252 307.068 87.6432 304.458 85.4371ZM149.996 73.6486H144.654V94.8153C144.654 97.9058 142.258 100.403 139.313 100.403C136.358 100.403 133.961 97.9058 133.961 94.8153V73.6486H128.619C125.674 73.6486 123.277 71.1413 123.277 68.0605C123.277 64.9701 125.674 62.4725 128.619 62.4725H149.996C152.941 62.4725 155.338 64.9701 155.338 68.0605C155.338 71.1413 152.941 73.6486 149.996 73.6486ZM171.596 100.384C162.743 100.384 155.571 92.8814 155.571 83.61C155.571 74.3484 162.743 66.8457 171.596 66.8457C180.45 66.8457 187.622 74.3581 187.622 83.61C187.622 92.8814 180.441 100.384 171.596 100.384ZM208.507 100.384C199.653 100.384 192.481 92.8814 192.481 83.61C192.481 74.3484 199.653 66.8457 208.507 66.8457C217.361 66.8457 224.533 74.3581 224.533 83.61C224.533 92.8814 217.361 100.384 208.507 100.384ZM245.408 100.384C236.555 100.384 229.382 92.8814 229.382 83.61V68.0605C229.382 64.9701 231.779 62.4725 234.724 62.4725C237.595 62.4725 239.936 64.8438 240.057 67.8176C241.729 67.1859 243.532 66.8457 245.408 66.8457C254.262 66.8457 261.434 74.3581 261.434 83.61C261.443 92.8814 254.271 100.384 245.408 100.384ZM297.202 100.384H282.328C273.474 100.384 266.302 92.8814 266.302 83.61C266.302 74.3484 273.474 66.8457 282.328 66.8457C291.182 66.8457 298.354 74.3581 298.354 83.61C298.354 85.5731 298.029 87.4682 297.434 89.2175C300.277 89.3439 302.544 91.7832 302.544 94.7959C302.544 97.8766 300.147 100.384 297.202 100.384Z" fill="white" fill-opacity="0.95" shape-rendering="crispEdges"/>
<path d="M282.21 78.1157C279.25 78.1157 276.858 80.5965 276.858 83.6447C276.858 86.7024 279.25 89.1736 282.21 89.1736C285.16 89.1736 287.562 86.7024 287.562 83.6447C287.562 80.5965 285.16 78.1157 282.21 78.1157Z" fill="white" fill-opacity="0.95" shape-rendering="crispEdges"/>
</g>
<g filter="url(#filter1_d_25_1113)">
<path fill-rule="evenodd" clip-rule="evenodd" d="M104.889 60.7371L104.891 60.7391C107.183 63.0264 108.457 66.0728 108.446 69.3405L108.446 69.3425V69.3444C108.446 72.5924 107.183 75.6398 104.88 77.9381L81.297 101.483C80.7741 102.005 79.9192 102.005 79.3961 101.483L62.5664 84.6881C60.2637 82.3903 59 79.343 59 76.0828C59 72.8226 60.2637 69.7754 62.5664 67.4775C64.8684 65.1802 67.9136 63.9258 71.1646 63.9258C74.2759 63.9258 77.2048 65.0849 79.4752 67.213L80.3626 68.0448L87.6951 60.7275C89.9971 58.4302 93.0424 57.1758 96.2933 57.1758C99.5431 57.1758 102.599 58.4409 104.889 60.7371ZM66.761 80.3618L79.9457 93.2363L98.9178 74.7647L99.7694 73.8569C102.09 71.5801 102.09 67.8769 99.7698 65.5999C97.4596 63.3226 93.7019 63.3229 91.3921 65.6009L80.911 76.0057L76.1051 71.4028C73.7949 69.1255 69.5385 69.6164 67.2287 71.8944C64.9203 74.171 64.4526 78.0852 66.761 80.3618Z" fill="white" fill-opacity="0.95" shape-rendering="crispEdges"/>
</g>
<defs>
<filter id="filter0_d_25_1113" x="58.9706" y="0.196389" width="307.862" height="167.124" filterUnits="userSpaceOnUse" color-interpolation-filters="sRGB">
<feFlood flood-opacity="0" result="BackgroundImageFix"/>
<feColorMatrix in="SourceAlpha" type="matrix" values="0 0 0 0 0 0 0 0 0 0 0 0 0 0 0 0 0 0 127 0" result="hardAlpha"/>
<feOffset dy="2.32515"/>
<feGaussianBlur stdDeviation="29.0644"/>
<feComposite in2="hardAlpha" operator="out"/>
<feColorMatrix type="matrix" values="0 0 0 0 1 0 0 0 0 1 0 0 0 0 1 0 0 0 1 0"/>
<feBlend mode="normal" in2="BackgroundImageFix" result="effect1_dropShadow_25_1113"/>
<feBlend mode="normal" in="SourceGraphic" in2="effect1_dropShadow_25_1113" result="shape"/>
</filter>
<filter id="filter1_d_25_1113" x="0.871239" y="1.37217" width="165.704" height="160.956" filterUnits="userSpaceOnUse" color-interpolation-filters="sRGB">
<feFlood flood-opacity="0" result="BackgroundImageFix"/>
<feColorMatrix in="SourceAlpha" type="matrix" values="0 0 0 0 0 0 0 0 0 0 0 0 0 0 0 0 0 0 127 0" result="hardAlpha"/>
<feOffset dy="2.32515"/>
<feGaussianBlur stdDeviation="29.0644"/>
<feComposite in2="hardAlpha" operator="out"/>
<feColorMatrix type="matrix" values="0 0 0 0 1 0 0 0 0 1 0 0 0 0 1 0 0 0 1 0"/>
<feBlend mode="normal" in2="BackgroundImageFix" result="effect1_dropShadow_25_1113"/>
<feBlend mode="normal" in="SourceGraphic" in2="effect1_dropShadow_25_1113" result="shape"/>
</filter>
</defs>
</svg>
